Coordinates
version=1
nRows=24
nColumns=24
inDegrees=yes

Units are S.I. units (second, meters, Newtons, ...)
Angles are in degrees.

endheader
time	pelvis_tilt	pelvis_list	pelvis_rotation	pelvis_tx	pelvis_ty	pelvis_tz	hip_flexion_r	hip_adduction_r	hip_rotation_r	knee_angle_r	ankle_angle_r	subtalar_angle_r	mtp_angle_r	hip_flexion_l	hip_adduction_l	hip_rotation_l	knee_angle_l	ankle_angle_l	subtalar_angle_l	mtp_angle_l	lumbar_extension	lumbar_bending	lumbar_rotation
      6.91000000	      0.55823238	      2.70390560	     -1.36258951	      1.00142296	      0.67724320	     -0.26316488	     28.16907782	     -1.08934209	     -2.96086248	    -44.85274373	      6.84761111	    -17.65587069	      0.00000000	     -2.42401010	      6.48961192	      0.58343085	    -10.00352828	     16.54007021	     -9.34912206	      0.00000000	    -17.68105070	     -7.10797832	     -4.64452102
      6.92000000	      0.55799618	      2.89724701	     -0.94375654	      1.00959620	      0.67631824	     -0.26322965	     28.18463613	     -1.65628237	     -3.41862255	    -41.08073732	      6.65892926	    -17.25289491	      0.00000000	     -3.29993537	      6.65630478	      0.96612001	     -9.82393999	     17.13546623	     -9.13882124	      0.00000000	    -17.69513731	     -7.25331181	     -4.87503622
      6.93000000	      0.59737675	      3.10944419	     -0.49372324	      1.01794072	      0.67534463	     -0.26327909	     27.98033999	     -2.24028011	     -3.89972944	    -37.07648305	      6.42441517	    -16.57295671	      0.00000000	     -4.27084299	      6.81827522	      1.35612784	     -9.58683810	     17.67690351	     -8.84809821	      0.00000000	    -17.73851050	     -7.40208656	     -5.13388787
      6.94000000	      0.60915865	      3.36799610	     -0.00078108	      1.02644948	      0.67425013	     -0.26332713	     27.65912391	     -2.88623777	     -4.47488257	    -32.91038497	      6.21119912	    -15.56659212	      0.00000000	     -5.26557992	      7.00254468	      1.78654519	     -9.28242567	     18.19923542	     -8.53679510	      0.00000000	    -17.72851955	     -7.58206892	     -5.42622187
      6.95000000	      0.70628162	      3.64274892	      0.48504879	      1.03515938	      0.67312618	     -0.26333121	     27.12607293	     -3.54595020	     -5.17045724	    -28.66354014	      6.29613425	    -13.97674563	      0.00000000	     -6.42681441	      7.17976721	      2.21882685	     -8.87322448	     18.66083865	     -8.21178280	      0.00000000	    -17.79490771	     -7.77095502	     -5.72763965
      6.96000000	      0.71872044	      3.96922407	      1.08320538	      1.04398133	      0.67182618	     -0.26340179	     26.58801368	     -4.28438342	     -6.03084971	    -24.41691172	      6.46335324	    -12.09675034	      0.00000000	     -7.50177247	      7.38368931	      2.83381885	     -8.50359373	     19.10379109	     -7.96908761	      0.00000000	    -17.77245553	     -7.96882249	     -6.15940988
      6.97000000	      0.72289702	      4.32326729	      1.74136568	      1.05292037	      0.67042183	     -0.26347441	     26.00547729	     -5.04961247	     -7.04335462	    -20.28751684	      6.75841753	     -9.91309582	      0.00000000	     -8.57795278	      7.58668434	      3.56894554	     -8.15669126	     19.49417161	     -7.81711838	      0.00000000	    -17.75475256	     -8.17220618	     -6.64829347
      6.98000000	      0.71075628	      4.68668408	      2.46247693	      1.06196117	      0.66892514	     -0.26353603	     25.42313887	     -5.81147951	     -8.16239407	    -16.39932198	      7.09692821	     -7.59326079	      0.00000000	     -9.62437585	      7.76642205	      4.41228159	     -7.87410051	     19.84961689	     -7.74274781	      0.00000000	    -17.74112966	     -8.36214292	     -7.19300966
      6.99000000	      0.66994611	      5.04138921	      3.23198429	      1.07107569	      0.66735230	     -0.26355197	     24.89063957	     -6.53821652	     -9.29559193	    -12.88255711	      7.39636822	     -5.33966710	      0.00000000	    -10.59828743	      7.90503152	      5.31520920	     -7.70379390	     20.18826305	     -7.71595696	      0.00000000	    -17.73054964	     -8.53572621	     -7.76228996
      7.00000000	      0.58928963	      5.36690976	      4.03701084	      1.08023447	      0.66573595	     -0.26350794	     24.45907461	     -7.21045732	    -10.33873613	     -9.87781529	      7.64983395	     -3.31837199	      0.00000000	    -11.45858008	      7.98839488	      6.21308494	     -7.68591754	     20.51293562	     -7.72554430	      0.00000000	    -17.71555291	     -8.67136831	     -8.33524434
      7.01000000	      0.45952235	      5.64345413	      4.84861058	      1.08940709	      0.66411712	     -0.26336537	     24.16751318	     -7.80786561	    -11.18152954	     -7.48156729	      7.83589527	     -1.74199127	      0.00000000	    -12.17104263	      8.00605438	      7.04616724	     -7.84882629	     20.82529104	     -7.73013049	      0.00000000	    -17.69806805	     -8.76942743	     -8.87894299
      7.02000000	      0.24536816	      5.87874209	      5.66160701	      1.09858211	      0.66250771	     -0.26312026	     24.04213199	     -8.33503193	    -11.55755686	     -5.70480720	      7.81952066	     -1.13580227	      0.00000000	    -12.66212114	      7.97915479	      7.73939983	     -8.25755630	     21.16467399	     -7.59574801	      0.00000000	    -17.63394473	     -8.84128042	     -9.38924903
      7.03000000	      0.13650297	      5.95064533	      6.40853007	      1.10785333	      0.66113233	     -0.26274477	     23.93961546	     -8.68935414	    -12.05749417	     -4.67826752	      8.08348955	     -0.35128576	      0.00000000	    -13.18934855	      7.77143949	      8.28795724	     -8.76175020	     21.39464120	     -7.52856401	      0.00000000	    -17.71037754	     -8.73564328	     -9.82303128
      7.04000000	     -0.06265834	      6.00851295	      7.11162952	      1.11714932	      0.65980323	     -0.26221591	     24.02923197	     -8.99607380	    -12.07411358	     -4.31868021	      8.36536696	     -0.44708972	      0.00000000	    -13.49805451	      7.56358923	      8.72159392	     -9.48293715	     21.57684375	     -7.42886483	      0.00000000	    -17.74221889	     -8.65591220	    -10.19827819
      7.05000000	     -0.22971585	      5.97228865	      7.77513318	      1.12661160	      0.65866246	     -0.26157334	     24.12448308	     -9.18087133	    -12.03756847	     -4.50279724	      8.55297358	     -0.83781898	      0.00000000	    -13.74563788	      7.25027322	      9.03436777	    -10.36356340	     21.69045370	     -7.24170283	      0.00000000	    -17.80748951	     -8.47715271	    -10.55754112
      7.06000000	     -0.39149301	      5.86244482	      8.32983535	      1.13625652	      0.65763003	     -0.26067766	     24.21912654	     -9.19437182	    -11.54931423	     -5.08018081	      8.36804786	     -2.10208354	      0.00000000	    -13.86214170	      6.84711498	      8.95329741	    -11.46865812	     21.83646913	     -6.66200665	      0.00000000	    -17.87372773	     -8.26334879	    -10.83450630
      7.07000000	     -0.53615613	      5.70586464	      8.82944998	      1.14612069	      0.65674347	     -0.25964391	     24.28276158	     -9.10499040	    -11.07764157	     -5.96592227	      7.88164471	     -3.57640104	      0.00000000	    -13.95817417	      6.39240787	      8.95081240	    -12.64124004	     21.79011878	     -6.23370532	      0.00000000	    -17.94291400	     -8.01153037	    -11.09209413
      7.08000000	     -0.66740047	      5.49022599	      9.24959476	      1.15620615	      0.65599770	     -0.25843654	     24.26826602	     -8.87109810	    -10.48752937	     -6.95688513	      6.84458134	     -5.47360250	      0.00000000	    -14.00323326	      5.87316035	      8.91730896	    -13.91413026	     21.54774944	     -5.84266555	      0.00000000	    -17.99583498	     -7.71492966	    -11.27255757
      7.09000000	     -0.78143316	      5.21371943	      9.54129470	      1.16648096	      0.65541304	     -0.25705239	     24.19423298	     -8.47916370	     -9.79667897	     -7.97518746	      5.17282320	     -7.72915229	      0.00000000	    -14.00404279	      5.31067943	      8.83368786	    -15.27251857	     21.10155211	     -5.52402330	      0.00000000	    -18.02771176	     -7.37996067	    -11.35018968
      7.10000000	     -0.87557835	      4.86609188	      9.68478708	      1.17689072	      0.65503554	     -0.25551502	     24.08805229	     -7.92919579	     -9.00340734	     -8.99860063	      3.03949826	    -10.18235511	      0.00000000	    -13.95295851	      4.71033856	      8.67324640	    -16.71496518	     20.42173720	     -5.34752377	      0.00000000	    -18.03078641	     -6.98645543	    -11.26553571
      7.11000000	     -0.93979136	      4.44902074	      9.61370680	      1.18736212	      0.65491675	     -0.25382132	     23.98268817	     -7.21047946	     -8.05722860	    -10.04396862	      0.82868033	    -12.57425094	      0.00000000	    -13.84317975	      4.10839406	      8.38821671	    -18.26409905	     19.44201961	     -5.33562835	      0.00000000	    -18.02275513	     -6.53481513	    -10.99139496
      7.12000000	     -0.97953615	      3.95362251	      9.34776390	      1.19784169	      0.65508658	     -0.25200030	     23.91057466	     -6.33580678	     -7.02148103	    -11.17356069	     -1.01335838	    -14.65888320	      0.00000000	    -13.64198147	      3.50032638	      7.92675486	    -19.95019748	     18.15190940	     -5.53546459	      0.00000000	    -18.00546081	     -6.00397198	    -10.54896981
      7.13000000	     -1.01569164	      3.37942911	      8.92532805	      1.20829730	      0.65554097	     -0.25008669	     23.86185860	     -5.32623074	     -6.00255089	    -12.35135673	     -2.18549563	    -16.24955523	      0.00000000	    -13.29286067	      2.88500266	      7.26893662	    -21.82487913	     16.50227613	     -5.97068703	      0.00000000	    -17.96518819	     -5.38155081	    -10.00163354
      7.14000000	     -1.04791237	      2.71308313	      8.38819492	      1.21871510	      0.65624179	     -0.24811916	     23.81796779	     -4.20775493	     -5.26161451	    -13.57062273	     -2.38402577	    -16.97314400	      0.00000000	    -12.75410328	      2.22341055	      6.32450147	    -23.94867015	     14.56259757	     -6.61602557	      0.00000000	    -17.90820844	     -4.62937295	     -9.41070471
